<svg version="1.0" xmlns="http://www.w3.org/2000/svg"
 width="18" height="18" viewBox="0 0 128.000000 128.000000"
>

<g transform="translate(0.000000,128.000000) scale(0.100000,-0.100000)"
fill="rgb(255, 89, 0)" stroke="none">
<path d="M200 1260 c-20 -20 -20 -33 -20 -620 0 -587 0 -600 20 -620 19 -19 33 -20 440 -20 407 0 421 1 440 20 19 19 20 33 20 485 l0 464 -152 3 -153 3 -3 153 -3 152 -284 0 c-272 0 -286 -1 -305 -20z m276 -148 c3 -9 18 -25 35 -34 33 -19 36 -30 14 -51 -12 -12 -21 -13 -43 -5 -16 6 -36 8 -46 5 -32 -12 -16 -37 39 -62 44 -19 59 -32 70 -60 13 -30 13 -39 1 -69 -8 -19 -25 -42 -39 -51 -14 -9 -27 -25 -30 -35 -7 -26 -47 -27 -54 -2 -2 10 -18 23 -34 29 -35 14 -47 39 -27 60 12 12 20 13 36 4 45 -24 92 -8 92 32 0 12 -15 25 -46 38 -63 28 -84 52 -84 95 0 26 7 43 28 62 16 15 31 35 35 45 8 22 48 22 53 -1z m449 -512 l0 -25 -283 -3 c-245 -2 -283 0 -288 13 -4 8 -4 22 0 30 5 13 43 15 288 13 l283 -3 0 -25z m0 -160 l0 -25 -283 -3 c-245 -2 -283 0 -288 13 -4 8 -4 22 0 30 5 13 43 15 288 13 l283 -3 0 -25z"
/>
<path d="M850 1145 l0 -115 115 0 c63 0 115 3 115 8 0 9 -213 222 -223 222 -4
0 -7 -52 -7 -115z"/>
</g>
</svg>