<svg  width="18px" height="18px" viewBox="0 0 1000 1000" xmlns="http://www.w3.org/2000/svg">
          
          <path d="M469.333333 384h170.666667a42.666667 42.666667 0 0 0 0-85.333333h-85.333333V256a42.666667 42.666667 0 0 0-85.333334 0v42.666667a128 128 0 0 0 0 256h85.333334a42.666667 42.666667 0 0 1 0 85.333333H384a42.666667 42.666667 0 0 0 0 85.333333h85.333333v42.666667a42.666667 42.666667 0 0 0 85.333334 0v-42.666667a128 128 0 0 0 0-256h-85.333334a42.666667 42.666667 0 0 1 0-85.333333z m42.666667-341.333333a469.333333 469.333333 0 1 0 469.333333 469.333333A469.333333 469.333333 0 0 0 512 42.666667z m0 853.333333a384 384 0 1 1 384-384 384 384 0 0 1-384 384z"  fill="#ff5900"/>
</svg>